<svg width="149" height="38" viewBox="0 0 149 38" fill="none" xmlns="http://www.w3.org/2000/svg">
<rect x="1.30827" y="1.30827" width="146.383" height="35.3835" stroke="#262626" stroke-width="2.61654"/>
<path d="M21.1991 11.2H25.9991C27.2951 11.2 28.4151 11.376 29.3591 11.728C29.7591 11.872 30.0791 12.144 30.3191 12.544C30.5591 12.928 30.7511 13.28 30.8951 13.6C31.0391 13.92 31.1351 14.448 31.1831 15.184C31.2791 16.368 31.3271 17.8 31.3271 19.48C31.3271 21.144 31.3111 22.32 31.2791 23.008C31.2471 23.696 31.1431 24.456 30.9671 25.288C30.8071 26.104 30.5351 26.656 30.1511 26.944C29.2071 27.648 27.8231 28 25.9991 28H21.1991V11.2ZM26.0231 12.928H23.2631V26.224H26.0231C27.1271 26.224 27.9671 26.04 28.5431 25.672C28.9431 25.416 29.1671 24.912 29.2151 24.16C29.2311 23.92 29.2391 23.56 29.2391 23.08V16.072C29.2391 15.592 29.2311 15.24 29.2151 15.016C29.1991 14.776 29.1351 14.496 29.0231 14.176C28.9271 13.856 28.7671 13.624 28.5431 13.48C27.9671 13.112 27.1271 12.928 26.0231 12.928ZM41.285 28V11.2H49.277L49.037 12.88H43.349V18.736H48.557V20.416H43.349V26.32H49.517V28H41.285ZM58.6288 28V11.2H60.6928V26.32H66.1168V28H58.6288ZM83.1538 23.368V11.2H85.2178V19.624C85.2178 23.048 85.0738 25.088 84.7858 25.744C84.6578 26.064 84.4658 26.44 84.2098 26.872C83.9698 27.288 83.6578 27.576 83.2738 27.736C82.8898 27.88 82.4178 28.008 81.8578 28.12C81.3138 28.232 80.6658 28.288 79.9138 28.288C79.1618 28.288 78.5138 28.232 77.9698 28.12C77.4258 28.008 76.9538 27.88 76.5538 27.736C76.1698 27.576 75.8578 27.288 75.6178 26.872C75.3778 26.44 75.1858 26.064 75.0418 25.744C74.9138 25.424 74.8178 24.88 74.7538 24.112C74.6738 23.152 74.6338 21.656 74.6338 19.624V11.2H76.6978V23.368C76.6978 23.848 76.7058 24.208 76.7218 24.448C76.7378 24.672 76.7938 24.944 76.8898 25.264C77.0018 25.584 77.1698 25.816 77.3938 25.96C77.6178 26.104 77.9378 26.232 78.3538 26.344C78.7858 26.456 79.3138 26.512 79.9378 26.512C80.5618 26.512 81.0818 26.456 81.4978 26.344C81.9138 26.232 82.2338 26.104 82.4578 25.96C82.6818 25.816 82.8418 25.584 82.9378 25.264C83.0498 24.944 83.1138 24.672 83.1298 24.448C83.1458 24.208 83.1538 23.848 83.1538 23.368ZM99.4336 17.56L102.698 11.2H104.882L100.586 19.6L104.906 28H102.698L99.4336 21.64L96.1936 28H93.9856L98.3056 19.6L94.0096 11.2H96.1936L99.4336 17.56ZM113.777 28V11.2H121.769L121.529 12.88H115.841V18.736H121.049V20.416H115.841V26.32H122.009V28H113.777Z" fill="#262626"/>
<path d="M21.1991 11.2V10.2H20.1991V11.2H21.1991ZM29.3591 11.728L29.0097 12.665L29.0203 12.6689L29.3591 11.728ZM30.3191 12.544L29.4616 13.0585L29.4662 13.0663L29.4711 13.074L30.3191 12.544ZM31.1831 15.184L30.1852 15.2491L30.1857 15.257L30.1863 15.2648L31.1831 15.184ZM31.2791 23.008L32.278 23.0545V23.0545L31.2791 23.008ZM30.9671 25.288L29.9887 25.081L29.9872 25.0883L29.9857 25.0956L30.9671 25.288ZM30.1511 26.944L30.7489 27.7456L30.7511 27.744L30.1511 26.944ZM21.1991 28H20.1991V29H21.1991V28ZM23.2631 12.928V11.928H22.2631V12.928H23.2631ZM23.2631 26.224H22.2631V27.224H23.2631V26.224ZM28.5431 25.672L29.0815 26.5147L29.0821 26.5143L28.5431 25.672ZM29.2151 24.16L28.2173 24.0935L28.2171 24.0963L29.2151 24.16ZM29.2151 15.016L28.2173 15.0825L28.2176 15.0872L29.2151 15.016ZM29.0231 14.176L28.0652 14.4633L28.0717 14.485L28.0792 14.5063L29.0231 14.176ZM28.5431 13.48L29.0838 12.6388L29.0815 12.6373L28.5431 13.48ZM21.1991 12.2H25.9991V10.2H21.1991V12.2ZM25.9991 12.2C27.2083 12.2 28.2043 12.3647 29.0097 12.665L29.7084 10.791C28.6258 10.3873 27.3818 10.2 25.9991 10.2V12.2ZM29.0203 12.6689C29.1819 12.7271 29.3279 12.8356 29.4616 13.0585L31.1766 12.0295C30.8303 11.4524 30.3362 11.0169 29.6978 10.7871L29.0203 12.6689ZM29.4711 13.074C29.6936 13.43 29.8621 13.7415 29.9831 14.0104L31.807 13.1896C31.64 12.8185 31.4246 12.426 31.1671 12.014L29.4711 13.074ZM29.9831 14.0104C30.0488 14.1562 30.1383 14.5304 30.1852 15.2491L32.1809 15.1189C32.1318 14.3656 32.0294 13.6838 31.807 13.1896L29.9831 14.0104ZM30.1863 15.2648C30.2795 16.4135 30.3271 17.8169 30.3271 19.48H32.3271C32.3271 17.7831 32.2787 16.3225 32.1798 15.1032L30.1863 15.2648ZM30.3271 19.48C30.3271 21.144 30.311 22.2992 30.2801 22.9615L32.278 23.0545C32.3112 22.3408 32.3271 21.144 32.3271 19.48H30.3271ZM30.2801 22.9615C30.2512 23.5848 30.156 24.2902 29.9887 25.081L31.9454 25.495C32.1301 24.6218 32.243 23.8072 32.278 23.0545L30.2801 22.9615ZM29.9857 25.0956C29.8414 25.8317 29.6358 26.0805 29.5511 26.144L30.7511 27.744C31.4343 27.2315 31.7727 26.3763 31.9484 25.4804L29.9857 25.0956ZM29.5532 26.1424C28.8536 26.6642 27.7185 27 25.9991 27V29C27.9276 29 29.5605 28.6318 30.7489 27.7456L29.5532 26.1424ZM25.9991 27H21.1991V29H25.9991V27ZM22.1991 28V11.2H20.1991V28H22.1991ZM26.0231 11.928H23.2631V13.928H26.0231V11.928ZM22.2631 12.928V26.224H24.2631V12.928H22.2631ZM23.2631 27.224H26.0231V25.224H23.2631V27.224ZM26.0231 27.224C27.2114 27.224 28.2738 27.0307 29.0815 26.5147L28.0047 24.8293C27.6603 25.0493 27.0427 25.224 26.0231 25.224V27.224ZM29.0821 26.5143C29.8778 26.0051 30.1568 25.104 30.213 24.2237L28.2171 24.0963C28.1773 24.72 28.0084 24.8269 28.004 24.8297L29.0821 26.5143ZM30.2128 24.2265C30.2311 23.9521 30.2391 23.565 30.2391 23.08H28.2391C28.2391 23.555 28.231 23.8879 28.2173 24.0935L30.2128 24.2265ZM30.2391 23.08V16.072H28.2391V23.08H30.2391ZM30.2391 16.072C30.2391 15.5886 30.2312 15.2066 30.2125 14.9448L28.2176 15.0872C28.2309 15.2734 28.2391 15.5954 28.2391 16.072H30.2391ZM30.2128 14.9495C30.189 14.5911 30.0976 14.2189 29.9669 13.8456L28.0792 14.5063C28.1726 14.7731 28.2092 14.9609 28.2173 15.0825L30.2128 14.9495ZM29.9809 13.8887C29.8344 13.4002 29.5555 12.942 29.0838 12.6388L28.0023 14.3212C27.9966 14.3175 27.9985 14.3162 28.0078 14.3297C28.0188 14.3456 28.0418 14.3853 28.0652 14.4633L29.9809 13.8887ZM29.0815 12.6373C28.2738 12.1213 27.2114 11.928 26.0231 11.928V13.928C27.0427 13.928 27.6603 14.1027 28.0047 14.3227L29.0815 12.6373ZM41.285 28H40.285V29H41.285V28ZM41.285 11.2V10.2H40.285V11.2H41.285ZM49.277 11.2L50.267 11.3414L50.43 10.2H49.277V11.2ZM49.037 12.88V13.88H49.9043L50.027 13.0214L49.037 12.88ZM43.349 12.88V11.88H42.349V12.88H43.349ZM43.349 18.736H42.349V19.736H43.349V18.736ZM48.557 18.736H49.557V17.736H48.557V18.736ZM48.557 20.416V21.416H49.557V20.416H48.557ZM43.349 20.416V19.416H42.349V20.416H43.349ZM43.349 26.32H42.349V27.32H43.349V26.32ZM49.517 26.32H50.517V25.32H49.517V26.32ZM49.517 28V29H50.517V28H49.517ZM42.285 28V11.2H40.285V28H42.285ZM41.285 12.2H49.277V10.2H41.285V12.2ZM48.2871 11.0586L48.0471 12.7386L50.027 13.0214L50.267 11.3414L48.2871 11.0586ZM49.037 11.88H43.349V13.88H49.037V11.88ZM42.349 12.88V18.736H44.349V12.88H42.349ZM43.349 19.736H48.557V17.736H43.349V19.736ZM47.557 18.736V20.416H49.557V18.736H47.557ZM48.557 19.416H43.349V21.416H48.557V19.416ZM42.349 20.416V26.32H44.349V20.416H42.349ZM43.349 27.32H49.517V25.32H43.349V27.32ZM48.517 26.32V28H50.517V26.32H48.517ZM49.517 27H41.285V29H49.517V27ZM58.6287 28H57.6287V29H58.6287V28ZM58.6287 11.2V10.2H57.6287V11.2H58.6287ZM60.6927 11.2H61.6927V10.2H60.6927V11.2ZM60.6927 26.32H59.6927V27.32H60.6927V26.32ZM66.1167 26.32H67.1167V25.32H66.1167V26.32ZM66.1167 28V29H67.1167V28H66.1167ZM59.6287 28V11.2H57.6287V28H59.6287ZM58.6287 12.2H60.6927V10.2H58.6287V12.2ZM59.6927 11.2V26.32H61.6927V11.2H59.6927ZM60.6927 27.32H66.1167V25.32H60.6927V27.32ZM65.1167 26.32V28H67.1167V26.32H65.1167ZM66.1167 27H58.6287V29H66.1167V27ZM83.1537 11.2V10.2H82.1538V11.2H83.1537ZM85.2178 11.2H86.2178V10.2H85.2178V11.2ZM84.7858 25.744L83.8701 25.342L83.8634 25.3572L83.8573 25.3726L84.7858 25.744ZM84.2097 26.872L83.3494 26.3622L83.3436 26.3723L84.2097 26.872ZM83.2738 27.736L83.6249 28.6723L83.6417 28.666L83.6584 28.6591L83.2738 27.736ZM81.8577 28.12L81.6616 27.1394L81.6561 27.1405L81.8577 28.12ZM77.9697 28.12L77.7681 29.0995L77.9697 28.12ZM76.5537 27.736L76.1691 28.6591L76.1919 28.6685L76.215 28.6769L76.5537 27.736ZM75.6177 26.872L74.7436 27.3576L74.7475 27.3647L74.7516 27.3717L75.6177 26.872ZM75.0418 25.744L74.1133 26.1154L74.1211 26.1351L74.1298 26.1544L75.0418 25.744ZM74.7537 24.112L73.7572 24.195L74.7537 24.112ZM74.6338 11.2V10.2H73.6338V11.2H74.6338ZM76.6978 11.2H77.6978V10.2H76.6978V11.2ZM76.7217 24.448L75.724 24.5145L75.7243 24.5192L76.7217 24.448ZM76.8898 25.264L75.9319 25.5513L75.9384 25.573L75.9459 25.5944L76.8898 25.264ZM77.3937 25.96L76.853 26.8012L77.3937 25.96ZM78.3538 26.344L78.0938 27.3097L78.1028 27.312L78.3538 26.344ZM81.4977 26.344L81.2378 25.3784L81.4977 26.344ZM82.4577 25.96L82.9985 26.8012L82.4577 25.96ZM82.9378 25.264L81.9939 24.9336L81.9864 24.955L81.9799 24.9767L82.9378 25.264ZM83.1298 24.448L84.1272 24.5192L84.1275 24.5145L83.1298 24.448ZM84.1537 23.368V11.2H82.1538V23.368H84.1537ZM83.1537 12.2H85.2178V10.2H83.1537V12.2ZM84.2178 11.2V19.624H86.2178V11.2H84.2178ZM84.2178 19.624C84.2178 21.3259 84.1818 22.6654 84.1122 23.6516C84.0774 24.1451 84.035 24.5368 83.9873 24.8343C83.937 25.1485 83.8897 25.2973 83.8701 25.342L85.7014 26.146C85.8258 25.8627 85.9045 25.5105 85.9622 25.1507C86.0225 24.7742 86.0701 24.3189 86.1073 23.7924C86.1817 22.7386 86.2178 21.3461 86.2178 19.624H84.2178ZM83.8573 25.3726C83.7549 25.6286 83.5899 25.9564 83.3495 26.3622L85.07 27.3818C85.3416 26.9236 85.5606 26.4994 85.7142 26.1154L83.8573 25.3726ZM83.3436 26.3723C83.1956 26.6288 83.0401 26.75 82.8891 26.8129L83.6584 28.6591C84.2754 28.402 84.7439 27.9472 85.0759 27.3717L83.3436 26.3723ZM82.9226 26.7997C82.6043 26.9191 82.1877 27.0342 81.6616 27.1394L82.0539 29.1006C82.6478 28.9818 83.1752 28.8409 83.6249 28.6723L82.9226 26.7997ZM81.6561 27.1405C81.197 27.2351 80.6201 27.288 79.9137 27.288V29.288C80.7114 29.288 81.4305 29.2289 82.0594 29.0995L81.6561 27.1405ZM79.9137 27.288C79.2074 27.288 78.6305 27.2351 78.1714 27.1405L77.7681 29.0995C78.397 29.2289 79.1161 29.288 79.9137 29.288V27.288ZM78.1714 27.1405C77.6607 27.0354 77.2366 26.919 76.8925 26.7951L76.215 28.6769C76.6709 28.841 77.1908 28.9806 77.7681 29.0995L78.1714 27.1405ZM76.9384 26.8129C76.7874 26.75 76.6319 26.6288 76.4839 26.3723L74.7516 27.3717C75.0836 27.9472 75.5521 28.402 76.1691 28.6591L76.9384 26.8129ZM76.4919 26.3864C76.2605 25.9699 76.0826 25.6201 75.9537 25.3336L74.1298 26.1544C74.2889 26.5079 74.495 26.9101 74.7436 27.3576L76.4919 26.3864ZM75.9702 25.3726C75.9023 25.2027 75.8137 24.7894 75.7503 24.029L73.7572 24.195C73.8218 24.9706 73.9253 25.6453 74.1133 26.1154L75.9702 25.3726ZM75.7503 24.029C75.674 23.1128 75.6338 21.6516 75.6338 19.624H73.6338C73.6338 21.6604 73.6735 23.1912 73.7572 24.195L75.7503 24.029ZM75.6338 19.624V11.2H73.6338V19.624H75.6338ZM74.6338 12.2H76.6978V10.2H74.6338V12.2ZM75.6978 11.2V23.368H77.6978V11.2H75.6978ZM75.6978 23.368C75.6978 23.853 75.7057 24.2401 75.724 24.5145L77.7195 24.3815C77.7058 24.1759 77.6978 23.843 77.6978 23.368H75.6978ZM75.7243 24.5192C75.7474 24.8427 75.824 25.1915 75.9319 25.5513L77.8476 24.9767C77.7635 24.6965 77.7281 24.5013 77.7192 24.3768L75.7243 24.5192ZM75.9459 25.5944C76.1112 26.0665 76.3954 26.507 76.853 26.8012L77.9345 25.1188C77.9338 25.1184 77.9319 25.1171 77.9285 25.1138C77.925 25.1105 77.9185 25.1036 77.9097 25.0915C77.8918 25.0668 77.8633 25.0185 77.8336 24.9336L75.9459 25.5944ZM76.853 26.8012C77.2003 27.0245 77.6317 27.1852 78.0938 27.3096L78.6137 25.3784C78.2438 25.2788 78.0352 25.1835 77.9345 25.1188L76.853 26.8012ZM78.1028 27.312C78.642 27.4518 79.2599 27.512 79.9378 27.512V25.512C79.3676 25.512 78.9295 25.4602 78.6047 25.376L78.1028 27.312ZM79.9378 27.512C80.614 27.512 81.2284 27.4521 81.7577 27.3096L81.2378 25.3784C80.9351 25.4599 80.5095 25.512 79.9378 25.512V27.512ZM81.7577 27.3096C82.2198 27.1852 82.6512 27.0245 82.9985 26.8012L81.917 25.1188C81.8163 25.1835 81.6077 25.2788 81.2378 25.3784L81.7577 27.3096ZM82.9985 26.8012C83.4702 26.498 83.749 26.0398 83.8956 25.5513L81.9799 24.9767C81.9565 25.0547 81.9335 25.0943 81.9225 25.1103C81.9132 25.1238 81.9113 25.1225 81.917 25.1188L82.9985 26.8012ZM83.8816 25.5944C84.0096 25.2286 84.1026 24.8643 84.1272 24.5192L82.1323 24.3768C82.1249 24.4797 82.0899 24.6594 81.9939 24.9336L83.8816 25.5944ZM84.1275 24.5145C84.1458 24.2401 84.1537 23.853 84.1537 23.368H82.1538C82.1538 23.843 82.1457 24.1759 82.132 24.3815L84.1275 24.5145ZM99.4336 17.56L98.5426 18.0139L99.4303 19.7566L100.323 18.0166L99.4336 17.56ZM102.698 11.2V10.2H102.087L101.808 10.7434L102.698 11.2ZM104.882 11.2L105.772 11.6553L106.516 10.2H104.882V11.2ZM100.586 19.6L99.6953 19.1447L99.4618 19.6013L99.6963 20.0573L100.586 19.6ZM104.906 28V29H106.544L105.795 27.5427L104.906 28ZM102.698 28L101.808 28.4566L102.087 29H102.698V28ZM99.4336 21.64L100.323 21.1834L99.4303 19.4434L98.5426 21.1861L99.4336 21.64ZM96.1936 28V29H96.8065L97.0847 28.4539L96.1936 28ZM93.9856 28L93.0963 27.5427L92.3468 29H93.9856V28ZM98.3056 19.6L99.1949 20.0573L99.4295 19.6013L99.1959 19.1447L98.3056 19.6ZM94.0096 11.2V10.2H92.375L93.1193 11.6553L94.0096 11.2ZM96.1936 11.2L97.0847 10.7461L96.8065 10.2H96.1936V11.2ZM100.323 18.0166L103.587 11.6566L101.808 10.7434L98.5439 17.1034L100.323 18.0166ZM102.698 12.2H104.882V10.2H102.698V12.2ZM103.991 10.7447L99.6953 19.1447L101.476 20.0553L105.772 11.6553L103.991 10.7447ZM99.6963 20.0573L104.016 28.4573L105.795 27.5427L101.475 19.1427L99.6963 20.0573ZM104.906 27H102.698V29H104.906V27ZM103.587 27.5434L100.323 21.1834L98.5439 22.0966L101.808 28.4566L103.587 27.5434ZM98.5426 21.1861L95.3026 27.5461L97.0847 28.4539L100.325 22.0939L98.5426 21.1861ZM96.1936 27H93.9856V29H96.1936V27ZM94.8749 28.4573L99.1949 20.0573L97.4163 19.1427L93.0963 27.5427L94.8749 28.4573ZM99.1959 19.1447L94.8999 10.7447L93.1193 11.6553L97.4153 20.0553L99.1959 19.1447ZM94.0096 12.2H96.1936V10.2H94.0096V12.2ZM95.3026 11.6539L98.5426 18.0139L100.325 17.1061L97.0847 10.7461L95.3026 11.6539ZM113.777 28H112.777V29H113.777V28ZM113.777 11.2V10.2H112.777V11.2H113.777ZM121.769 11.2L122.759 11.3414L122.922 10.2H121.769V11.2ZM121.529 12.88V13.88H122.396L122.519 13.0214L121.529 12.88ZM115.841 12.88V11.88H114.841V12.88H115.841ZM115.841 18.736H114.841V19.736H115.841V18.736ZM121.049 18.736H122.049V17.736H121.049V18.736ZM121.049 20.416V21.416H122.049V20.416H121.049ZM115.841 20.416V19.416H114.841V20.416H115.841ZM115.841 26.32H114.841V27.32H115.841V26.32ZM122.009 26.32H123.009V25.32H122.009V26.32ZM122.009 28V29H123.009V28H122.009ZM114.777 28V11.2H112.777V28H114.777ZM113.777 12.2H121.769V10.2H113.777V12.2ZM120.779 11.0586L120.539 12.7386L122.519 13.0214L122.759 11.3414L120.779 11.0586ZM121.529 11.88H115.841V13.88H121.529V11.88ZM114.841 12.88V18.736H116.841V12.88H114.841ZM115.841 19.736H121.049V17.736H115.841V19.736ZM120.049 18.736V20.416H122.049V18.736H120.049ZM121.049 19.416H115.841V21.416H121.049V19.416ZM114.841 20.416V26.32H116.841V20.416H114.841ZM115.841 27.32H122.009V25.32H115.841V27.32ZM121.009 26.32V28H123.009V26.32H121.009ZM122.009 27H113.777V29H122.009V27Z" fill="black"/>
</svg>
